<?xml version="1.0" encoding="UTF-8"?>
<svg version="1.1" xmlns="http://www.w3.org/2000/svg" width="810" height="757">
<path d="M0 0 C2.05731239 -0.00131124 4.11462428 -0.0039435 6.17193353 -0.0077675 C11.77510981 -0.01442179 17.37811148 -0.0025501 22.98126554 0.01256669 C29.04235511 0.02559641 35.10343588 0.02113271 41.16453552 0.01885986 C51.64918845 0.01729149 62.13379159 0.02654934 72.61842728 0.04357338 C83.60601698 0.06136806 94.5935842 0.07287999 105.5811882 0.07613182 C106.60869472 0.07644115 106.60869472 0.07644115 107.65695894 0.07675673 C111.13621989 0.07777183 114.61548087 0.07867594 118.09474187 0.07953735 C142.69252016 0.08582661 167.29026918 0.10600511 191.88803101 0.13444519 C215.77377162 0.16203001 239.6595042 0.18326538 263.54525757 0.19596863 C264.28244777 0.19636321 265.01963798 0.19675778 265.77916728 0.19716432 C273.18281703 0.20112012 280.58646684 0.20494753 287.9901167 0.2086809 C303.07013275 0.21628808 318.15014828 0.22475183 333.23016357 0.23373413 C334.27003227 0.23435194 334.27003227 0.23435194 335.33090842 0.23498222 C381.56838616 0.26255087 427.80584679 0.31014523 474.04330444 0.36076355 C473.10009529 1.47157246 472.15538307 2.58110518 471.21005249 3.69010925 C470.4211689 4.61712395 470.4211689 4.61712395 469.61634827 5.56286621 C467.47503252 8.01026521 465.18329703 10.27850721 462.85580444 12.54826355 C460.49994196 14.84622465 458.30551205 17.00076289 456.36752319 19.6615448 C455.93053101 20.22228699 455.49353882 20.78302917 455.04330444 21.36076355 C454.38330444 21.36076355 453.72330444 21.36076355 453.04330444 21.36076355 C452.76308134 21.93699239 452.48285824 22.51322122 452.19414353 23.10691154 C443.38840726 40.35243837 427.99342682 59.82098202 408.8543179 66.07618654 C383.066919 72.9230892 353.92621912 70.27848177 327.54307379 69.63229822 C316.18227642 69.36238869 304.82397329 69.32810091 293.46043417 69.30492808 C273.19046003 69.25775706 252.92656219 69.03474251 232.65951538 68.69572449 C213.03210329 68.3678204 193.40640149 68.11939357 173.77670288 67.97990417 C171.95668028 67.96692505 171.95668028 67.96692505 170.09988955 67.95368372 C162.801876 67.90232365 155.50384455 67.85397767 148.2058056 67.80638608 C137.5726445 67.73639595 126.93952557 67.66062524 116.306427 67.58174133 C115.16220881 67.57331322 114.01799061 67.5648851 112.83909914 67.55620159 C97.04059645 67.43796541 81.24337868 67.26884121 65.44592434 67.05215225 C62.23404968 67.00826955 59.02216083 66.96563696 55.81026411 66.92340207 C53.7331586 66.89595098 51.65605354 66.86846486 49.57894897 66.84094238 C48.06617459 66.82090285 48.06617459 66.82090285 46.5228391 66.80045848 C40.68122299 66.72188204 34.83986722 66.63328347 28.99852087 66.5368024 C25.44527024 66.48015982 21.89193899 66.43218211 18.33853361 66.38638915 C16.71900886 66.36357849 15.0995314 66.33701441 13.48013929 66.30619358 C-7.52316062 65.90939966 -24.83819942 69.81690879 -40.58169556 84.48576355 C-58.78579476 103.55825618 -59.11551248 126.58203498 -59.09040833 151.37464905 C-59.0922807 153.14914375 -59.09458309 154.92363803 -59.09727365 156.69813168 C-59.10334508 161.5341025 -59.1032636 166.3700559 -59.10207927 171.20602965 C-59.10187409 176.43722657 -59.10740513 181.66841807 -59.11213684 186.89961243 C-59.1204177 197.13224115 -59.12319049 207.36486411 -59.12374922 217.5974959 C-59.12422547 225.91840818 -59.12628568 234.23931857 -59.12944984 242.56023026 C-59.1382484 266.18062993 -59.14287032 289.80102507 -59.14211937 313.4214264 C-59.14205944 315.32861753 -59.14205944 315.32861753 -59.14199829 317.27433777 C-59.14193697 319.1838716 -59.14193697 319.1838716 -59.14187441 321.13198186 C-59.14146788 341.76717044 -59.15104139 362.40234078 -59.16513666 383.03752409 C-59.17951411 404.25406517 -59.18640613 425.47059737 -59.18554288 446.68714345 C-59.18521145 458.58729837 -59.18793514 470.48743416 -59.19872093 482.38758469 C-59.20784382 492.51738106 -59.2099864 502.64714961 -59.20321151 512.77694832 C-59.19995571 517.9395574 -59.19985559 523.10211315 -59.20856476 528.2647171 C-59.21647207 533.00088972 -59.21495552 537.7369671 -59.20628063 542.47313751 C-59.20475494 544.17621092 -59.20652619 545.8792916 -59.2121407 547.58235644 C-59.23791636 555.96348654 -59.02365298 564.23027871 -58.08577442 572.56500435 C-58.01087761 573.24700218 -57.93598081 573.92900001 -57.8588144 574.63166445 C-56.53030102 585.20146642 -51.8636601 596.04682575 -45.30825806 604.4818573 C-43.95669556 606.36076355 -43.95669556 606.36076355 -43.95669556 608.36076355 C-43.29669556 608.36076355 -42.63669556 608.36076355 -41.95669556 608.36076355 C-40.62193486 610.02628732 -39.28888448 611.693182 -37.95669556 613.36076355 C-28.04390863 621.94487874 -17.12410029 628.74644362 -3.95669556 630.36076355 C-2.13984111 630.61436551 -2.13984111 630.61436551 -0.28628254 630.87309074 C6.77391461 631.64738126 13.86876443 631.49874648 20.96122742 631.48774719 C22.58185539 631.48890052 24.20248311 631.49048948 25.82311028 631.49247444 C30.26302084 631.49664049 34.70290985 631.49458916 39.14282048 631.49148822 C43.93920417 631.48922246 48.7355842 631.49272013 53.53196716 631.49546814 C62.9349436 631.49991658 72.33791206 631.4989522 81.74088881 631.4960555 C89.40899294 631.49379208 97.07709484 631.49349303 104.7451992 631.49457932 C105.8391107 631.49473255 106.93302219 631.49488578 108.06008252 631.49504366 C110.28329069 631.49536343 112.50649886 631.49568764 114.72970702 631.49601625 C135.59730064 631.49886981 156.46488988 631.49558895 177.33248278 631.49021588 C195.12712413 631.48577485 212.92175893 631.48650152 230.71640015 631.49113464 C251.44545241 631.49652939 272.17450079 631.49856696 292.90355366 631.49552238 C295.1314797 631.4952039 297.35940574 631.49488953 299.58733177 631.49457932 C300.68300396 631.49442504 301.77867614 631.49427076 302.90755052 631.49411181 C310.51905456 631.4932592 318.13055605 631.4947051 325.74205971 631.49705887 C380.90288984 631.554031 380.90288984 631.554031 436.05966187 630.97746277 C437.09864392 630.96232077 438.13762597 630.94717877 439.20809233 630.93157792 C461.76871967 630.58466551 479.45936599 627.68009405 496.35580444 611.36076355 C497.60081819 610.04221539 498.83105262 608.70949406 500.04330444 607.36076355 C500.84187866 606.5099823 500.84187866 606.5099823 501.65658569 605.64201355 C511.21423778 594.38028396 514.35336369 577.73721453 514.30158997 563.46081543 C514.30710352 561.68563413 514.30710352 561.68563413 514.31272846 559.87459058 C514.32095504 556.60721758 514.3203486 553.33998573 514.31600153 550.07260978 C514.3135169 546.54227504 514.32260416 543.01196806 514.3303833 539.48164368 C514.34240713 533.3698001 514.3475351 527.25798256 514.34826469 521.1461277 C514.34959212 512.30404253 514.36471867 503.46202045 514.38375986 494.61995759 C514.41457523 480.26590787 514.4387545 465.91185656 514.45663452 451.55778503 C514.4577072 450.69933293 514.45877988 449.84088082 514.45988507 448.95641502 C514.47171174 439.37334446 514.48191741 429.79027326 514.49032593 420.2071991 C514.49340009 416.72900898 514.49648883 413.25081887 514.49960327 409.77262878 C514.50036861 408.91431587 514.50113395 408.05600295 514.50192248 407.17168055 C514.51499805 392.86654956 514.53962615 378.56146442 514.57334667 364.25636739 C514.59364414 355.43453194 514.60392505 346.61279451 514.60135747 337.79093554 C514.6003234 331.75028719 514.609943 325.70971646 514.6279965 319.6690952 C514.63805235 316.18288235 514.64315795 312.6968412 514.63522911 309.21061897 C514.6291215 305.43348916 514.6412588 301.65684792 514.65803528 297.87976074 C514.65182346 296.77529785 514.64561165 295.67083496 514.6392116 294.53290349 C514.7162047 285.06016362 514.7162047 285.06016362 518.04330444 281.36076355 C518.70330444 281.36076355 519.36330444 281.36076355 520.04330444 281.36076355 C520.37330444 280.37076355 520.70330444 279.38076355 521.04330444 278.36076355 C521.70330444 278.36076355 522.36330444 278.36076355 523.04330444 278.36076355 C523.37330444 277.37076355 523.70330444 276.38076355 524.04330444 275.36076355 C524.70330444 275.36076355 525.36330444 275.36076355 526.04330444 275.36076355 C526.28645386 274.79091736 526.52960327 274.22107117 526.78012085 273.63395691 C528.27774374 270.93887249 530.04995468 269.14512348 532.25424194 266.9896698 C533.08697632 266.16789246 533.91971069 265.34611511 534.77767944 264.49943542 C535.64908569 263.64929871 536.52049194 262.79916199 537.41830444 261.92326355 C539.13676699 260.23942674 540.85298831 258.55329896 542.56674194 256.8646698 C543.32906128 256.12031677 544.09138062 255.37596375 544.87680054 254.60905457 C547.13152336 252.3498725 547.13152336 252.3498725 549.1980896 249.57926941 C549.8070105 248.84716248 550.4159314 248.11505554 551.04330444 247.36076355 C551.70330444 247.36076355 552.36330444 247.36076355 553.04330444 247.36076355 C553.37330444 246.37076355 553.70330444 245.38076355 554.04330444 244.36076355 C555.71517944 242.7474823 555.71517944 242.7474823 557.79330444 241.04826355 C560.44055783 238.81849815 562.76986861 236.63775434 564.91830444 233.92326355 C565.61955444 233.07763855 566.32080444 232.23201355 567.04330444 231.36076355 C567.70330444 231.36076355 568.36330444 231.36076355 569.04330444 231.36076355 C569.29080444 230.74201355 569.53830444 230.12326355 569.79330444 229.48576355 C571.28070813 226.95717728 572.48008453 226.64237351 575.04330444 225.36076355 C576.26858392 223.41055272 576.26858392 223.41055272 577.04330444 221.36076355 C577.37330444 220.70076355 577.70330444 220.04076355 578.04330444 219.36076355 C579.03330444 219.36076355 580.02330444 219.36076355 581.04330444 219.36076355 C581.11202615 266.09682263 581.16486144 312.83287634 581.19650043 359.56897601 C581.20025239 365.09120606 581.20413537 370.613436 581.20809937 376.13566589 C581.2088863 377.23500578 581.20967323 378.33434566 581.21048401 379.46699888 C581.22352484 397.24885287 581.24717139 415.03067767 581.27476283 432.81251436 C581.30285384 451.06907015 581.31948851 469.32561067 581.32556993 487.58218718 C581.3296787 498.8402667 581.34263876 510.09826366 581.36705384 521.35631776 C581.38295668 529.08468576 581.38769453 536.81301131 581.38380858 544.54139447 C581.38189409 548.9949692 581.38475248 553.44840003 581.40092087 557.90194893 C581.41565231 561.98982942 581.41617216 566.0774709 581.40600113 570.16536301 C581.40474637 571.63401429 581.408439 573.10268125 581.41795399 574.57130224 C581.49839792 587.76923468 579.77107039 600.63929195 575.48080444 613.17326355 C575.23104858 613.90698181 574.98129272 614.64070007 574.72396851 615.39665222 C565.96279603 639.89942247 548.66339447 663.91476576 526.04330444 677.36076355 C525.02494507 678.00013855 524.00658569 678.63951355 522.95736694 679.29826355 C503.72121655 690.91918736 481.94862867 697.55131447 459.42899704 697.489398 C458.60702271 697.49115104 457.78504837 697.49290408 456.93816572 697.49471024 C454.19607486 697.49934569 451.45403759 697.49691109 448.71194458 697.49447632 C446.72116307 697.49634553 444.73038193 697.49864667 442.73960137 697.50134164 C437.27806916 697.50745244 431.81655227 697.50732689 426.35501742 697.50614727 C420.46120897 697.50594308 414.56740541 697.51146373 408.67359924 697.51620483 C397.13003148 697.52450792 385.58646883 697.52725952 374.04289833 697.52781721 C364.65916507 697.52827712 355.27543346 697.53033737 345.89170074 697.53351784 C343.18856883 697.53441541 340.48543692 697.53530522 337.782305 697.53619272 C336.77423608 697.53652429 336.77423608 697.53652429 335.74580214 697.53686256 C316.84771504 697.54301496 297.94962852 697.5469633 279.05154037 697.54651928 C278.33934085 697.5465037 277.62714133 697.54648812 276.89336001 697.54647207 C273.28380766 697.54638897 269.67425531 697.54628993 266.06470296 697.54618736 C265.34785972 697.54616742 264.63101649 697.54614747 263.89245073 697.54612692 C262.44281965 697.54608649 260.99318857 697.54604469 259.54355748 697.54600153 C236.99219716 697.54538885 214.44085187 697.55289484 191.88949585 697.5665741 C166.54077533 697.58194393 141.19206468 697.59053978 115.8433392 697.58961087 C113.13894987 697.58953625 110.43456054 697.58948754 107.7301712 697.58945656 C107.06430452 697.5894449 106.39843784 697.58943325 105.71239339 697.58942124 C95.67236984 697.58939241 85.63235865 697.59473388 75.59233856 697.60278893 C64.16928298 697.61189491 52.74625205 697.61406834 41.32319441 697.6072795 C35.49683746 697.60401486 29.6705278 697.60395568 23.84417534 697.61263275 C18.50597194 697.62050097 13.16785332 697.61906296 7.82965198 697.61034862 C5.90305335 697.60881436 3.97644838 697.610627 2.04985723 697.61620869 C-29.43337932 697.70134843 -58.76026657 689.18904962 -82.95669556 668.36076355 C-84.2425354 667.25861511 -84.2425354 667.25861511 -85.55435181 666.13420105 C-105.4483981 648.6706491 -118.34806806 625.18644593 -123.95669556 599.36076355 C-124.14034343 598.52895712 -124.32399131 597.6971507 -124.51320428 596.84013802 C-126.37468686 587.21121503 -126.23870994 577.66294852 -126.21739197 567.89883423 C-126.22041599 565.93036268 -126.22430673 563.96189231 -126.22898453 561.993424 C-126.23924125 556.60724519 -126.23708862 551.22113312 -126.23280394 545.8349489 C-126.23033243 540.01673887 -126.23935627 534.19854474 -126.24684143 528.38034058 C-126.25957958 516.98957276 -126.26138314 505.59882852 -126.25904117 494.20805477 C-126.25725651 484.94505695 -126.25901083 475.68206626 -126.26326561 466.41906929 C-126.2638608 465.09955823 -126.26445599 463.78004717 -126.26506921 462.42055093 C-126.26597651 460.4118299 -126.26688518 458.40310886 -126.26780156 456.39438783 C-126.27622702 437.7260034 -126.28056972 419.05762156 -126.27639484 400.3892355 C-126.27623847 399.68599963 -126.27608209 398.98276377 -126.27592098 398.25821773 C-126.27511525 394.69430838 -126.27426948 391.13039903 -126.27340768 387.56648969 C-126.27323659 386.85874536 -126.2730655 386.15100102 -126.27288923 385.42180989 C-126.27254257 383.99057886 -126.27219404 382.55934783 -126.27184364 381.12811681 C-126.26648967 358.87158428 -126.2744093 336.61509141 -126.2928772 314.35856628 C-126.31362524 289.32509019 -126.32431438 264.29163866 -126.32030171 239.2581535 C-126.3199064 236.58515839 -126.31954485 233.91216328 -126.31920433 231.23916817 C-126.31903649 229.92413684 -126.31886865 228.60910552 -126.31869573 227.25422476 C-126.31825881 218.01164135 -126.32513335 208.76908021 -126.33501625 199.52650261 C-126.34695332 188.24897296 -126.34830903 176.97150163 -126.33622608 165.69397115 C-126.33035315 159.94581468 -126.3291939 154.19776474 -126.34122849 148.44961548 C-126.3521408 143.17594362 -126.34892077 137.90246657 -126.3349668 132.62880362 C-126.33233447 130.73247081 -126.33463971 128.83612246 -126.34270266 126.93980496 C-126.48223865 91.64041342 -116.63566282 61.16940185 -91.95669556 35.36076355 C-91.30700806 34.63631042 -90.65732056 33.9118573 -89.98794556 33.16545105 C-80.83227695 23.34071435 -68.4563853 14.37517397 -55.95669556 9.36076355 C-55.37017212 9.12164246 -54.78364868 8.88252136 -54.17935181 8.63615417 C-52.11482099 7.80829776 -50.03922171 7.01718763 -47.95669556 6.23576355 C-47.33536743 5.99358093 -46.71403931 5.75139832 -46.07388306 5.50187683 C-31.24899929 0.20779456 -15.53947334 -0.07463478 0 0 Z " fill="#000000" transform="translate(144.95669555664063,42.63923645019531)"/>
</svg>
