<?xml version="1.0" encoding="UTF-8"?>
<svg version="1.1" xmlns="http://www.w3.org/2000/svg" width="810" height="757">
<path d="M0 0 C4.12801407 0.51582623 6.06193013 1.56440216 8.98005676 4.4990387 C10.11365631 5.62439026 10.11365631 5.62439026 11.27015686 6.7724762 C12.08439621 7.60109665 12.89863556 8.4297171 13.73754883 9.28344727 C15.0407457 10.58576797 15.0407457 10.58576797 16.37026978 11.91439819 C18.74709799 14.29353438 21.11470746 16.68119338 23.47865891 19.07308316 C25.9525362 21.57197873 28.43775849 24.05953873 30.92179871 26.54832458 C35.62231124 31.26126563 40.31253504 35.98430941 44.99914616 40.71107 C50.33586925 46.09251463 55.68396547 51.46259504 61.03304636 56.83175194 C72.03473308 67.87524014 83.02205295 78.93290967 94 90 C92.61041043 92.89244334 91.29961931 94.9337626 88.98828125 97.171875 C88.10390381 98.0388501 88.10390381 98.0388501 87.20166016 98.92333984 C86.26652588 99.82753662 86.26652588 99.82753662 85.3125 100.75 C80.87995591 105.10172789 76.58710038 109.46749453 72.5703125 114.2109375 C70.17052913 116.94501906 67.55590322 119.45263272 64.96484375 122.00390625 C63.07769256 123.92107177 61.31314625 125.89575322 59.5625 127.9375 C56.35920142 131.66616873 52.93339494 135.10939297 49.40625 138.53125 C46.77805189 141.22771299 44.32743004 144.0425766 41.86035156 146.88574219 C38.86311609 150.29204917 35.74285463 153.57942079 32.625 156.875 C27.80860094 161.98775667 23.04718972 167.13708222 18.37109375 172.37890625 C15.28609491 175.78917679 12.14365948 179.14385819 9 182.5 C4.36928399 187.44470443 -0.21211186 192.42507684 -4.7265625 197.4765625 C-7.45837593 200.50878154 -10.22714409 203.50535027 -13 206.5 C-17.27733285 211.12075364 -21.51310068 215.77505793 -25.71484375 220.46484375 C-28.33273129 223.36913266 -30.97753203 226.24770775 -33.625 229.125 C-37.15563876 232.96380225 -40.62709831 236.84449902 -44.0390625 240.7890625 C-47.26504914 244.4263303 -50.58945383 247.97386604 -53.91381836 251.52124023 C-56.16089773 253.93377547 -58.1667297 256.25009456 -60 259 C-60.66 259 -61.32 259 -62 259 C-62.40049561 259.88377319 -62.40049561 259.88377319 -62.80908203 260.78540039 C-64.02051438 263.038148 -65.29251597 264.5898936 -67.0546875 266.43359375 C-67.6636084 267.07603027 -68.2725293 267.7184668 -68.89990234 268.38037109 C-69.55168457 269.05922363 -70.2034668 269.73807617 -70.875 270.4375 C-72.23999752 271.87590915 -73.60457542 273.31471661 -74.96875 274.75390625 C-75.649375 275.46949707 -76.33 276.18508789 -77.03125 276.92236328 C-79.83741624 279.88373168 -82.61074747 282.87453695 -85.375 285.875 C-85.86170166 286.40303223 -86.34840332 286.93106445 -86.84985352 287.47509766 C-92.39229444 293.49928502 -97.89553913 299.55767728 -103.25 305.75 C-107.13912071 310.22067147 -111.19737646 314.53186428 -115.23901367 318.86401367 C-118.59817083 322.47095767 -121.89018912 326.11923242 -125.10546875 329.85546875 C-128.33110457 333.50675548 -131.66906892 337.05644931 -135.00219727 340.60961914 C-137.82571318 343.56819251 -137.82571318 343.56819251 -140 347 C-140.66 347 -141.32 347 -142 347 C-142.26248535 347.58539551 -142.5249707 348.17079102 -142.79541016 348.77392578 C-144.06147375 351.11360309 -145.42586776 352.71043022 -147.2734375 354.6171875 C-147.92763672 355.29982666 -148.58183594 355.98246582 -149.25585938 356.68579102 C-149.95517578 357.40822998 -150.65449219 358.13066895 -151.375 358.875 C-156.5758702 364.31360091 -161.65435952 369.80448717 -166.5 375.5625 C-170.22559214 379.98497883 -174.06175265 384.189089 -178.2109375 388.21875 C-180.65936083 390.65648153 -182.8992793 393.24973221 -185.15234375 395.8671875 C-187.2371655 398.27376821 -189.36521533 400.63764945 -191.5 403 C-194.13180445 405.91488929 -196.74286926 408.84273211 -199.3125 411.8125 C-202.93877649 415.9772491 -206.69313718 420.01945656 -210.4453125 424.0703125 C-216.11618079 430.19598727 -221.73454543 436.36641336 -227.1875 442.6875 C-231.25228861 447.35869064 -235.50882416 451.8504605 -239.74267578 456.36767578 C-243.76704565 460.66553615 -247.73010149 465.01089868 -251.65234375 469.40234375 C-254.60980358 472.67474106 -257.61682004 475.89927934 -260.625 479.125 C-264.53913151 483.32411947 -268.39554737 487.55395878 -272.1484375 491.8984375 C-277.18221898 497.61188568 -282.42415376 503.1452334 -287.60253906 508.72753906 C-289.17341959 510.42170144 -290.74333854 512.11674532 -292.3125 513.8125 C-292.8163623 514.35688721 -293.32022461 514.90127441 -293.83935547 515.4621582 C-296.54467449 518.3938919 -299.20589291 521.35529224 -301.8125 524.375 C-304.49641857 527.48132706 -307.34212983 530.36257787 -310.26953125 533.23828125 C-311.99451481 534.99441576 -313.59182464 536.81364395 -315.1875 538.6875 C-318.89864896 543.01009684 -322.92879817 546.98463578 -327.00073242 550.96362305 C-329.86054555 553.70559588 -329.86054555 553.70559588 -332 557 C-332.66 557 -333.32 557 -334 557 C-334.24081299 557.56750977 -334.48162598 558.13501953 -334.72973633 558.71972656 C-336.25625408 561.46000636 -338.08200967 563.29039291 -340.32421875 565.484375 C-341.18853516 566.33773437 -342.05285156 567.19109375 -342.94335938 568.0703125 C-343.84892578 568.95460938 -344.75449219 569.83890625 -345.6875 570.75 C-351.06797762 576.02482461 -356.34112231 581.28748434 -361.24194336 587.01269531 C-364.631545 590.84429612 -368.301366 594.40437135 -371.9375 598 C-372.71673828 598.77472656 -373.49597656 599.54945313 -374.29882812 600.34765625 C-376.1969242 602.23410757 -378.09733149 604.11816245 -380 606 C-384.02654194 604.1527997 -386.71593076 601.47493371 -389.75 598.3125 C-392.87969337 595.07103186 -396.02423789 591.94424375 -399.46484375 589.03125 C-406.27941934 583.14637839 -412.48288427 576.58255422 -418.8125 570.1875 C-421.42029246 567.5531071 -424.0313914 564.92205622 -426.64453125 562.29296875 C-427.23829056 561.6909111 -427.83204987 561.08885345 -428.44380188 560.46855164 C-430.8661854 558.03173908 -433.13159406 555.91227062 -436 554 C-436 553.34 -436 552.68 -436 552 C-436.99 551.67 -437.98 551.34 -439 551 C-439 550.34 -439 549.68 -439 549 C-439.53625 548.79375 -440.0725 548.5875 -440.625 548.375 C-443.91978009 546.46749574 -446.59363628 543.95180616 -449 541 C-449 540.34 -449 539.68 -449 539 C-449.99 538.67 -450.98 538.34 -452 538 C-452 537.34 -452 536.68 -452 536 C-452.54722717 535.77841721 -453.09445435 535.55683441 -453.65826416 535.32853699 C-456.73110639 533.58522141 -459.01274158 531.24174659 -461.46777344 528.7434082 C-462.00170715 528.20816025 -462.53564087 527.67291229 -463.08575439 527.1214447 C-464.84827111 525.35244303 -466.60370068 523.57657166 -468.359375 521.80078125 C-469.58951481 520.56436563 -470.8201748 519.32846735 -472.05133057 518.09306335 C-475.2944252 514.83666546 -478.53191656 511.57475826 -481.76782227 508.31121826 C-486.93117903 503.10477523 -492.10112663 497.9049008 -497.27454376 492.70845604 C-499.07152955 490.90134005 -500.86500579 489.09079611 -502.65814209 487.27986145 C-503.77685618 486.15430848 -504.89568583 485.02887036 -506.01464844 483.90356445 C-506.50324341 483.40823212 -506.99183838 482.91289978 -507.49523926 482.40255737 C-510.21450227 479.67464326 -513.01357574 477.0909797 -515.92718506 474.5708313 C-519.83170912 471.18669104 -523.50870459 467.62638747 -527.15039062 463.96313477 C-528.14700714 462.96673729 -528.14700714 462.96673729 -529.16375732 461.95021057 C-531.33030421 459.7829744 -533.49330062 457.61223229 -535.65625 455.44140625 C-537.16917356 453.926615 -538.68232 452.41204632 -540.19567871 450.89768982 C-544.15651974 446.9330512 -548.11434702 442.96541749 -552.0715332 438.99713135 C-556.11877339 434.93961743 -560.16888565 430.88497254 -564.21875 426.83007812 C-572.14863112 418.88950839 -580.07532821 410.9457684 -588 403 C-586.6186262 400.1403583 -585.26150606 397.97942103 -583.078125 395.6640625 C-582.47540771 395.02267334 -581.87269043 394.38128418 -581.25170898 393.72045898 C-580.59114502 393.02895752 -579.93058105 392.33745605 -579.25 391.625 C-578.55914307 390.89547119 -577.86828613 390.16594238 -577.15649414 389.41430664 C-570.1168446 382.02949315 -562.88891864 374.83089702 -555.62792969 367.66455078 C-551.05830295 363.13881498 -546.62011287 358.58086949 -542.45727539 353.67602539 C-541.02612724 352.03004917 -539.62925648 350.45189228 -538 349 C-537.34 349 -536.68 349 -536 349 C-536 348.34 -536 347.68 -536 347 C-534.37271851 345.27248173 -532.7143351 343.63796565 -531 342 C-529.82476645 340.83018774 -528.65243951 339.65745097 -527.48242188 338.48242188 C-501.51757812 312.51757812 -501.51757812 312.51757812 -499.68359375 310.68383789 C-498.18496365 309.18499047 -496.68715074 307.68532607 -495.18945312 306.18554688 C-493.61509372 304.61399632 -492.02975347 303.05341802 -490.4375 301.5 C-487.94271376 299.03416242 -487.94271376 299.03416242 -485.8125 296.1875 C-485.214375 295.465625 -484.61625 294.74375 -484 294 C-483.34 294 -482.68 294 -482 294 C-481.67 293.01 -481.34 292.02 -481 291 C-475.74898354 291.31558493 -473.11559137 294.38293303 -469.66796875 297.9765625 C-469.07252762 298.5800351 -468.47708649 299.18350769 -467.86360168 299.80526733 C-465.96187636 301.73593983 -464.07425149 303.67970163 -462.1875 305.625 C-460.309017 307.54630225 -458.42764094 309.46467604 -456.54353333 311.38046265 C-455.37423939 312.57106192 -454.20850217 313.76516982 -453.04716492 314.96353149 C-450.23369018 317.8441891 -447.36832768 320.58094283 -444.30786133 323.19873047 C-439.27954861 327.54283037 -434.63041293 332.25722711 -429.95368958 336.97114563 C-428.30666117 338.63113059 -426.65636048 340.28780235 -425.00524902 341.94372559 C-420.90810448 346.05412223 -416.81647096 350.16999034 -412.72467041 354.28570557 C-409.25504276 357.77518221 -405.78329203 361.26252108 -402.30879211 364.74714661 C-400.69607417 366.36626771 -399.08643782 367.98840784 -397.47692871 369.61071777 C-388.79652924 379.35047869 -388.79652924 379.35047869 -378 386 C-376.12468442 384.87070639 -376.12468442 384.87070639 -374.375 383.1875 C-373.76398438 382.64480469 -373.15296875 382.10210937 -372.5234375 381.54296875 C-370.89977774 380.05803791 -370.89977774 380.05803791 -370 378 C-369.34 378 -368.68 378 -368 378 C-367.67 377.01 -367.34 376.02 -367 375 C-366.34 375 -365.68 375 -365 375 C-364.73683487 374.41119049 -364.47366974 373.82238098 -364.20252991 373.21572876 C-362.94482345 370.89833412 -361.63093075 369.39563666 -359.75952148 367.54833984 C-359.10221542 366.89441254 -358.44490936 366.24048523 -357.76768494 365.56674194 C-357.05930984 364.87182648 -356.35093475 364.17691101 -355.62109375 363.4609375 C-354.53019188 362.37783798 -354.53019188 362.37783798 -353.41725159 361.27285767 C-351.09536418 358.96877306 -348.76689861 356.67148868 -346.4375 354.375 C-344.10541428 352.07050867 -341.77479055 349.76458608 -339.44703674 347.45571899 C-337.99854462 346.01950844 -336.54738824 344.58597914 -335.09336853 343.15536499 C-334.43921463 342.507742 -333.78506073 341.86011902 -333.11108398 341.19287109 C-332.24410133 340.33826797 -332.24410133 340.33826797 -331.35960388 339.46640015 C-329.89566622 338.02481286 -329.89566622 338.02481286 -329 336 C-328.34 336 -327.68 336 -327 336 C-326.62875 335.13375 -326.62875 335.13375 -326.25 334.25 C-324.81700012 331.67060021 -323.21575324 329.93878408 -321 328 C-320.34 328 -319.68 328 -319 328 C-318.75378906 327.42926758 -318.50757813 326.85853516 -318.25390625 326.27050781 C-316.79101003 323.6215719 -315.07354681 321.81451454 -312.9375 319.671875 C-312.14085937 318.87265625 -311.34421875 318.0734375 -310.5234375 317.25 C-309.69070313 316.425 -308.85796875 315.6 -308 314.75 C-307.16726563 313.90953125 -306.33453125 313.0690625 -305.4765625 312.203125 C-304.28160156 311.01203125 -304.28160156 311.01203125 -303.0625 309.796875 C-302.33160156 309.06823242 -301.60070312 308.33958984 -300.84765625 307.58886719 C-299 306 -299 306 -297 306 C-296.67 305.01 -296.34 304.02 -296 303 C-295.34 303 -294.68 303 -294 303 C-293.5937867 302.10532013 -293.5937867 302.10532013 -293.17936707 301.19256592 C-292.01304268 299.0242477 -290.87418908 297.63737398 -289.13012695 295.91894531 C-288.5522493 295.34444641 -287.97437164 294.76994751 -287.37898254 294.17803955 C-286.4430854 293.26233185 -286.4430854 293.26233185 -285.48828125 292.328125 C-284.51860664 291.36625275 -284.51860664 291.36625275 -283.52934265 290.38494873 C-281.46175974 288.33515238 -279.38763776 286.29214555 -277.3125 284.25 C-275.25603754 282.22133738 -273.20111681 280.1911744 -271.1492157 278.15789795 C-269.87423441 276.89497334 -268.59659246 275.6347266 -267.31575012 274.37774658 C-264.27755497 271.37297614 -261.36627111 268.31665372 -258.57543945 265.07983398 C-254.78442505 260.6909271 -250.73096318 256.60444456 -246.6171875 252.51953125 C-245.83989288 251.74365158 -245.06259827 250.96777191 -244.26174927 250.16838074 C-241.80186104 247.71403844 -239.33850725 245.26320918 -236.875 242.8125 C-235.21461092 241.15713455 -233.55445259 239.5015376 -231.89453125 237.84570312 C-228.85152169 234.81082218 -225.80721513 231.77725622 -222.76123047 228.74536133 C-222.10978058 228.09660034 -221.45833069 227.44783936 -220.78713989 226.77941895 C-219.6814685 225.67852436 -218.57533914 224.57808926 -217.46847534 223.47839355 C-214.66992012 220.69237119 -212.00046423 217.82526393 -209.375 214.875 C-203.70309398 208.5062045 -203.70309398 208.5062045 -202 207 C-201.34 207 -200.68 207 -200 207 C-199.74927734 206.42258057 -199.49855469 205.84516113 -199.24023438 205.25024414 C-197.83501053 202.70064805 -196.23854947 201.02750447 -194.15625 198.99609375 C-193.02896484 197.88524414 -193.02896484 197.88524414 -191.87890625 196.75195312 C-191.09386719 195.98818359 -190.30882812 195.22441406 -189.5 194.4375 C-187.94568662 192.91764184 -186.39350712 191.39559753 -184.84375 189.87109375 C-184.15474609 189.20005615 -183.46574219 188.52901855 -182.75585938 187.83764648 C-180.81983589 185.9179867 -180.81983589 185.9179867 -179 183 C-178.34 183 -177.68 183 -177 183 C-177 182.34 -177 181.68 -177 181 C-175.38025441 179.28769752 -173.7041054 177.62836738 -172 176 C-171.13375 175.0925 -170.2675 174.185 -169.375 173.25 C-167 171 -167 171 -164 170 C-163.29856043 168.68462752 -162.63550873 167.34846241 -162 166 C-160.51953125 164.30834961 -160.51953125 164.30834961 -158.8125 162.65234375 C-158.19632813 162.04712891 -157.58015625 161.44191406 -156.9453125 160.81835938 C-155.98238281 159.88733398 -155.98238281 159.88733398 -155 158.9375 C-153.72691422 157.69892558 -152.45599068 156.45812384 -151.1875 155.21484375 C-150.62417969 154.66948975 -150.06085938 154.12413574 -149.48046875 153.56225586 C-147.7856336 151.8622891 -147.7856336 151.8622891 -146 149 C-145.34 149 -144.68 149 -144 149 C-144 148.34 -144 147.68 -144 147 C-143.34 147 -142.68 147 -142 147 C-142 146.34 -142 145.68 -142 145 C-141.34 145 -140.68 145 -140 145 C-139.67 144.01 -139.34 143.02 -139 142 C-138.34 142 -137.68 142 -137 142 C-136.67 141.01 -136.34 140.02 -136 139 C-135.34 139 -134.68 139 -134 139 C-133.67 138.01 -133.34 137.02 -133 136 C-132.34 136 -131.68 136 -131 136 C-131 135.34 -131 134.68 -131 134 C-129.37258985 132.27244154 -127.71431757 130.63812568 -126 129 C-124.79938837 127.80478438 -123.6016474 126.60668065 -122.40625 125.40625 C-119.80208333 122.80208333 -117.19791667 120.19791667 -114.59375 117.59375 C-113.97927002 116.97846436 -113.36479004 116.36317871 -112.73168945 115.72924805 C-111.65019052 114.64927386 -110.56585719 113.57212188 -109.47729492 112.49926758 C-107.58611789 110.63219952 -105.88295484 108.83960478 -104.3125 106.6875 C-103.879375 106.130625 -103.44625 105.57375 -103 105 C-102.34 105 -101.68 105 -101 105 C-101 104.34 -101 103.68 -101 103 C-100.319375 102.46375 -99.63875 101.9275 -98.9375 101.375 C-96.61378335 99.49625037 -95.03372841 97.94580005 -93.16015625 95.6953125 C-87.07290016 88.6506092 -80.29531038 82.24130045 -73.67919922 75.69970703 C-64.75699452 66.91571658 -64.75699452 66.91571658 -56.38012695 57.6171875 C-54.06380191 54.90299379 -51.61323631 52.4309175 -49 50 C-48.34 50 -47.68 50 -47 50 C-46.75099945 49.42535507 -46.5019989 48.85071014 -46.24545288 48.25865173 C-44.8162888 45.66683636 -43.17641021 43.94319055 -41.07275391 41.86157227 C-40.2649649 41.05716202 -39.4571759 40.25275177 -38.62490845 39.42396545 C-37.3139772 38.13322365 -37.3139772 38.13322365 -35.9765625 36.81640625 C-35.07884125 35.92388657 -34.18112 35.03136688 -33.25619507 34.11180115 C-30.87083938 31.74124597 -28.48153375 29.37483426 -26.08978271 27.01074219 C-22.72724827 23.68617794 -19.36981318 20.35649499 -16.01522827 17.02391052 C-14.23057946 15.25147822 -12.44326385 13.48172609 -10.65298462 11.71498108 C-9.43184464 10.50363747 -9.43184464 10.50363747 -8.18603516 9.26782227 C-7.47258942 8.56262955 -6.75914368 7.85743683 -6.02407837 7.13087463 C-3.86499743 4.8578743 -1.9249022 2.47289259 0 0 Z " fill="#000000" transform="translate(699,21)"/>
<path d="M0 0 C2.00455197 -0.00043722 4.00910388 -0.00131489 6.01365548 -0.00258917 C11.46629385 -0.00480456 16.91891223 -0.00085378 22.37154806 0.0041889 C28.27242806 0.00853609 34.17330708 0.00704396 40.07418823 0.00628662 C50.27942353 0.00576408 60.48465241 0.00888264 70.68988609 0.01452446 C81.38358281 0.02043245 92.07727678 0.02429371 102.77097511 0.02537727 C103.43788821 0.02544601 104.1048013 0.02551475 104.79192388 0.02558558 C108.17935532 0.02592395 111.56678675 0.02622532 114.95421819 0.02651245 C138.8969962 0.02860835 162.83977087 0.03533307 186.782547 0.04481506 C210.03091921 0.05401138 233.27929051 0.06108916 256.52766418 0.06532288 C257.24530014 0.0654544 257.96293609 0.06558593 258.70231859 0.06572144 C265.90964457 0.06704005 273.11697055 0.06831585 280.32429655 0.0695603 C295.00417179 0.07209596 309.68404697 0.07491721 324.36392212 0.07791138 C325.37617785 0.07811731 325.37617785 0.07811731 326.40888319 0.07832741 C371.41145026 0.08751552 416.41401542 0.10338014 461.4165802 0.12025452 C461.4165802 3.12025452 461.4165802 3.12025452 460.15071106 4.71083069 C459.56684631 5.27262024 458.98298157 5.83440979 458.38142395 6.41322327 C457.73624817 7.04421936 457.09107239 7.67521545 456.42634583 8.32533264 C455.40057434 9.30663147 455.40057434 9.30663147 454.3540802 10.30775452 C453.02729956 11.59026573 451.70307538 12.87542694 450.38142395 14.16322327 C449.49378357 15.01436707 449.49378357 15.01436707 448.58821106 15.88270569 C444.09855546 20.50864089 439.90473212 25.18473849 436.4355278 30.63598824 C426.12440901 46.7932063 412.18017192 63.61244924 392.62095697 67.94718149 C367.61404511 72.59832393 341.20775684 71.01120771 315.91634478 70.39179301 C304.55554934 70.12187022 293.19724732 70.08759188 281.83370993 70.06441905 C261.56373579 70.01724803 241.29983795 69.79423348 221.03279114 69.45521545 C201.40537905 69.12731136 181.77967725 68.87888454 162.14997864 68.73939514 C160.32995604 68.72641602 160.32995604 68.72641602 158.4731653 68.71317469 C151.17515176 68.66181462 143.87712031 68.61346863 136.57908136 68.56587705 C125.94592025 68.49588692 115.31280133 68.4201162 104.67970276 68.3412323 C103.53548456 68.33280419 102.39126637 68.32437607 101.2123749 68.31569256 C85.4138722 68.19745637 69.61665444 68.02833218 53.8192001 67.81164321 C50.60732544 67.76776051 47.39543659 67.72512793 44.18353987 67.68289304 C42.10643435 67.65544194 40.0293293 67.62795583 37.95222473 67.60043335 C36.43945034 67.58039382 36.43945034 67.58039382 34.89611486 67.55994944 C29.05449875 67.481373 23.21314298 67.39277443 17.37179662 67.29629337 C13.81854599 67.23965079 10.26521475 67.19167308 6.71180937 67.14588012 C5.09228461 67.12306946 3.47280716 67.09650538 1.85341504 67.06568454 C-19.14988486 66.66889063 -36.46492367 70.57639976 -52.2084198 85.24525452 C-70.34565262 104.15291846 -70.74552507 127.47071114 -70.71040344 152.00283813 C-70.71155787 153.77519559 -70.71314754 155.5475528 -70.71513069 157.31990951 C-70.7192798 162.15446236 -70.71725342 166.98899531 -70.71414447 171.8235482 C-70.71187251 177.0512765 -70.71537889 182.27900149 -70.71812439 187.50672913 C-70.72256179 197.73347508 -70.72161467 207.96021369 -70.71871175 218.18695993 C-70.71644986 226.50077925 -70.7161486 234.81459652 -70.71723557 243.12841606 C-70.71746541 244.90588563 -70.71746541 244.90588563 -70.71769991 246.71926368 C-70.71801964 249.1268007 -70.71834386 251.53433772 -70.7186725 253.94187474 C-70.72152131 276.49603292 -70.71824959 299.05018703 -70.71287213 321.60434454 C-70.70840406 340.94290186 -70.70918122 360.28145317 -70.71379089 379.62001038 C-70.71914622 402.09712493 -70.72124729 424.57423591 -70.71817863 447.05135101 C-70.71786009 449.44953692 -70.71754572 451.84772283 -70.71723557 454.24590874 C-70.71708129 455.42575296 -70.71692701 456.60559718 -70.71676806 457.82119425 C-70.71590583 466.12233922 -70.71735946 474.42348192 -70.71971512 482.72462654 C-70.72252392 492.84467451 -70.72175202 502.96471472 -70.71643437 513.08476181 C-70.71381205 518.24482792 -70.71276738 523.40488112 -70.71608353 528.56494713 C-70.71907674 533.29414196 -70.71740354 538.02331198 -70.71210597 542.75250458 C-70.71099467 544.45755487 -70.7115442 546.16260727 -70.71398176 547.86765618 C-70.74674791 572.70450652 -68.33016169 594.00038668 -50.29826355 612.46400452 C-37.48931296 624.99650294 -21.37417979 631.30544111 -3.54950809 631.24609566 C-2.77814043 631.2475491 -2.00677276 631.24900254 -1.21203032 631.25050002 C1.36389527 631.2541395 3.93976091 631.25068316 6.51568604 631.24723816 C8.38471112 631.24839079 10.25373597 631.24997927 12.12276036 631.2519654 C17.25222912 631.25613926 22.38167927 631.25407678 27.5111481 631.25097919 C33.04565661 631.2487174 38.58016192 631.2522086 44.1146698 631.25495911 C54.95451419 631.25940751 65.79435167 631.25844443 76.63419633 631.25554647 C85.44399831 631.25328868 94.25379835 631.25298155 103.06360054 631.25407028 C104.31715676 631.25422352 105.57071297 631.25437675 106.86225574 631.25453462 C109.40879289 631.25485435 111.95533004 631.25517856 114.50186718 631.25550722 C137.70450589 631.258278 160.90714098 631.25540379 184.10977886 631.25016462 C205.28472052 631.24541966 226.45965617 631.24584322 247.63459778 631.25062561 C271.43080515 631.25598207 295.2270096 631.25808407 319.02321774 631.25501335 C321.56072652 631.2546948 324.09823531 631.25438043 326.63574409 631.25407028 C327.88425974 631.25391601 329.13277538 631.25376173 330.41912482 631.25360278 C339.21801028 631.2527393 348.0168936 631.25419688 356.81577873 631.25654984 C367.53921814 631.25935439 378.26265023 631.25859571 388.9860888 631.25326909 C394.45750841 631.25064088 399.9289158 631.24961215 405.40033531 631.25291824 C410.40959041 631.25589929 415.418822 631.25425817 420.42807496 631.24894069 C422.23955844 631.24782424 424.05104391 631.24839059 425.86252611 631.25081648 C428.32732131 631.2538639 430.79203631 631.25073118 433.25682735 631.24609566 C433.95766594 631.24843682 434.65850452 631.25077799 435.38058063 631.2531901 C453.14954187 631.1865474 467.81074314 625.53821828 481.4165802 614.12025452 C482.1384552 613.21275452 482.8603302 612.30525452 483.6040802 611.37025452 C484.2022052 610.62775452 484.8003302 609.88525452 485.4165802 609.12025452 C486.0765802 609.12025452 486.7365802 609.12025452 487.4165802 609.12025452 C487.6640802 608.60462952 487.9115802 608.08900452 488.1665802 607.55775452 C489.81239636 604.348413 491.6141898 601.24439788 493.4165802 598.12025452 C494.0765802 598.12025452 494.7365802 598.12025452 495.4165802 598.12025452 C495.5197052 597.25400452 495.6228302 596.38775452 495.7290802 595.49525452 C496.4165802 592.12025452 496.4165802 592.12025452 497.85521126 589.29291821 C504.4119842 575.96971517 502.81184967 559.74683016 502.71738863 545.3465656 C502.698045 541.8680976 502.69659236 538.38961598 502.69320679 534.91110229 C502.68535164 528.89866198 502.66758772 522.88631979 502.64387894 516.87392235 C502.60725982 507.36396434 502.60202341 497.85410428 502.60160828 488.34408569 C502.60108516 485.08234306 502.60036158 481.8206005 502.59957695 478.55885792 C502.59938906 477.74404694 502.59920117 476.92923596 502.59900758 476.08973375 C502.59645512 466.84168211 502.58753667 457.59364048 502.57575989 448.34559631 C502.5746932 447.50138612 502.57362652 446.65717592 502.57252751 445.78738359 C502.55442421 432.0859865 502.51329136 418.38472752 502.46641697 404.68340316 C502.41902995 390.58704997 502.40617547 376.49093248 502.4227618 362.39450961 C502.43169261 353.71389372 502.41242026 345.03426532 502.35648791 336.35382072 C502.32054904 330.40838922 502.31738678 324.46350577 502.33977719 318.51801004 C502.35165149 315.09132139 502.34902527 311.66628759 502.30673027 308.23980331 C502.2684184 304.51831549 502.28568852 300.80099478 502.31651306 297.07952881 C502.29214208 296.00607781 502.26777109 294.9326268 502.2426616 293.82664698 C502.38982372 286.24820959 504.75168949 282.58662399 510.09587944 277.27793628 C510.86171069 276.5659013 511.62754194 275.85386632 512.4165802 275.12025452 C513.75212911 273.78914044 515.08591489 272.45625054 516.4165802 271.12025452 C516.9734552 270.58400452 517.5303302 270.04775452 518.1040802 269.49525452 C519.53222333 268.13403979 519.53222333 268.13403979 520.4165802 266.12025452 C521.0765802 266.12025452 521.7365802 266.12025452 522.4165802 266.12025452 C522.7465802 265.13025452 523.0765802 264.14025452 523.4165802 263.12025452 C524.0765802 263.12025452 524.7365802 263.12025452 525.4165802 263.12025452 C525.7465802 262.13025452 526.0765802 261.14025452 526.4165802 260.12025452 C527.0765802 260.12025452 527.7365802 260.12025452 528.4165802 260.12025452 C528.4165802 259.46025452 528.4165802 258.80025452 528.4165802 258.12025452 C529.7915802 256.49525452 529.7915802 256.49525452 531.4165802 255.12025452 C532.0765802 255.12025452 532.7365802 255.12025452 533.4165802 255.12025452 C533.67974533 254.53209961 533.94291046 253.9439447 534.21405029 253.33796692 C535.47183448 251.01835426 536.79365594 249.49567099 538.65705872 247.63685608 C539.64301781 246.64628204 539.64301781 246.64628204 540.64889526 245.63569641 C541.7114579 244.58391205 541.7114579 244.58391205 542.79548645 243.51087952 C543.52275436 242.78406982 544.25002228 242.05726013 544.99932861 241.3084259 C546.53440306 239.77636861 548.0719033 238.24673858 549.61164856 236.71937561 C551.97886253 234.37047051 554.33792439 232.01360905 556.69587708 229.65541077 C558.18694134 228.16925978 559.67846204 226.68356656 561.17048645 225.19837952 C561.88088577 224.48909302 562.5912851 223.77980652 563.32321167 223.04902649 C563.97736557 222.40125244 564.63151947 221.75347839 565.30549622 221.08607483 C565.88348465 220.51189819 566.46147308 219.93772156 567.05697632 219.34614563 C568.4165802 218.12025452 568.4165802 218.12025452 569.4165802 218.12025452 C569.48530116 265.11110184 569.53813682 312.10194382 569.56977619 359.09283152 C569.57352815 364.64510411 569.57741113 370.1973766 569.58137512 375.74964905 C569.58216205 376.85497016 569.58294898 377.96029127 569.58375976 379.09910697 C569.59680077 396.97795878 569.62044742 414.85678155 569.64803859 432.73561615 C569.67612911 451.09161303 569.69276417 469.44759474 569.69884568 487.80361223 C569.70295456 499.12311049 569.71591518 510.44252663 569.7403296 521.76199961 C569.75623182 529.53241713 569.76097043 537.30279242 569.75708433 545.07322502 C569.75516976 549.55110264 569.75802933 554.02883714 569.77419662 558.50668907 C569.78892672 562.61677423 569.78944876 566.72662167 569.77927689 570.83671838 C569.77802199 572.31344495 569.78171579 573.7901871 569.79122975 575.26688355 C569.87132133 588.48054382 568.1507675 601.38002298 563.8540802 613.93275452 C563.60432434 614.66647278 563.35456848 615.40019104 563.09724426 616.15614319 C554.33607179 640.65891343 537.03667023 664.67425673 514.4165802 678.12025452 C513.39822083 678.75962952 512.37986145 679.39900452 511.3306427 680.05775452 C492.09562632 691.67799324 470.3235052 698.31082584 447.80506611 698.24888897 C446.98339137 698.25064201 446.16171663 698.25239504 445.31514266 698.2542012 C442.5740611 698.25883664 439.83303317 698.25640206 437.09194946 698.25396729 C435.10188065 698.2558365 433.1118122 698.25813764 431.12174433 698.26083261 C425.66214274 698.26694341 420.20255647 698.26681786 414.74295223 698.26563823 C408.85116965 698.26543404 402.95939198 698.27095473 397.06761169 698.2756958 C385.52771894 698.28399902 373.98783129 698.2867505 362.4479358 698.28730818 C353.06659481 698.28776811 343.68525547 698.28982845 334.30391502 698.2930088 C331.60136038 698.29390638 328.89880574 698.29479619 326.19625109 698.29568368 C325.5243443 698.29590473 324.85243751 698.29612578 324.1601699 698.29635352 C305.2656562 698.30250603 286.37114306 698.30645426 267.4766283 698.30601025 C266.764554 698.30599467 266.0524797 698.30597909 265.31882738 698.30596304 C261.709923 698.30587993 258.10101861 698.30578089 254.49211422 698.30567833 C253.41704617 698.30564841 253.41704617 698.30564841 252.32025956 698.30561789 C250.87089342 698.30557745 249.42152727 698.30553566 247.97216112 698.3054925 C225.42750465 698.30487988 202.88286323 698.31238447 180.33821106 698.32606506 C154.99570688 698.3414372 129.65321259 698.3500306 104.31070346 698.34910184 C101.60657704 698.34902721 98.90245062 698.34897851 96.1983242 698.34894753 C95.53252495 698.34893587 94.86672569 698.34892422 94.1807507 698.34891221 C84.14427665 698.34888338 74.10781496 698.35422325 64.07134438 698.36227989 C52.65087923 698.37138883 41.23043875 698.37355689 29.80997155 698.36677047 C23.98551595 698.36350725 18.16110766 698.36344149 12.33665657 698.37212372 C6.99901766 698.3799983 1.6614635 698.37854744 -3.67617337 698.36983959 C-5.6014439 698.36830672 -7.52672079 698.37011268 -9.45198383 698.37569966 C-22.89655882 698.41211368 -35.99638973 697.9353209 -48.9584198 693.93275452 C-49.66265076 693.71844788 -50.36688171 693.50414124 -51.092453 693.28334045 C-69.04763905 687.62318371 -84.5111946 678.66951163 -98.5834198 666.12025452 C-99.54892761 665.26173889 -100.51443542 664.40322327 -101.50920105 663.51869202 C-117.5251243 648.69608141 -128.99253827 628.11109161 -134.5834198 607.12025452 C-134.95677175 605.75466948 -134.95677175 605.75466948 -135.33766615 604.36149687 C-137.91686797 593.82840831 -138.00480905 583.7234748 -137.96437073 572.93533325 C-137.96783255 570.91278613 -137.97260063 568.89024089 -137.97855246 566.86769956 C-137.99102002 561.34146656 -137.98491141 555.81538995 -137.97559381 550.28915656 C-137.96878618 544.31699758 -137.97929306 538.34486488 -137.98753357 532.37271118 C-138.00008614 521.36001943 -137.99902167 510.3473739 -137.99079916 499.33468038 C-137.98323914 489.15873748 -137.9812886 478.98281273 -137.9848671 468.8068676 C-137.98509625 468.1306969 -137.98532541 467.45452621 -137.98556151 466.75786549 C-137.98649559 464.01274831 -137.9874508 461.26763114 -137.9884408 458.52251398 C-137.99760894 432.79360412 -137.98931167 407.06472576 -137.97315011 381.33582077 C-137.9589159 358.50166006 -137.96018684 335.66754955 -137.97453308 312.83338928 C-137.99061461 287.15170012 -137.99695701 261.47003878 -137.98769629 235.78834528 C-137.98673421 233.04804926 -137.98579568 230.30775323 -137.9848671 227.5674572 C-137.98462986 226.89277581 -137.98439263 226.21809443 -137.98414821 225.52296815 C-137.98074291 215.35673574 -137.98471336 205.19052351 -137.99230576 195.0242939 C-138.0009007 183.45830583 -137.99841518 171.89237412 -137.98246352 160.32639272 C-137.97459693 154.42885197 -137.97146174 148.53141291 -137.98141098 142.63387299 C-137.9903918 137.22849038 -137.98536937 131.8233031 -137.96947832 126.41793805 C-137.96614482 124.46924849 -137.96779211 122.52054222 -137.97510569 120.57186354 C-138.04047941 101.6958334 -135.81927007 82.49761495 -125.5834198 66.12025452 C-125.1502948 65.04775452 -124.7171698 63.97525452 -124.2709198 62.87025452 C-114.06066456 38.63433287 -89.63534089 18.4399807 -65.8334198 8.52650452 C-54.45122002 3.96863727 -43.20000915 1.14914406 -30.92066479 0.55355167 C-29.68217292 0.49160522 -29.68217292 0.49160522 -28.41866101 0.42840732 C-18.94645059 -0.00740953 -9.48024842 -0.0156248 0 0 Z " fill="#000000" transform="translate(156.5834197998047,41.87974548339844)"/>
</svg>
