<?xml version="1.0" encoding="UTF-8"?>
<svg version="1.1" xmlns="http://www.w3.org/2000/svg" width="539" height="346">
<path d="M0 0 C0.82242187 0.76183594 1.64484375 1.52367188 2.4921875 2.30859375 C3.61975921 3.35159759 4.74736527 4.39456429 5.875 5.4375 C6.679375 6.18290039 6.679375 6.18290039 7.5 6.94335938 C12.6235546 11.67966857 17.81206048 16.33085443 23 21 C57 55 57 55 61 62 C58.69267558 73.53662212 43.99935336 84.50850047 36 93 C34.35 94.98 32.7 96.96 31 99 C30.34 99 29.68 99 29 99 C28.34 100.32 27.68 101.64 27 103 C26.01 103.33 25.02 103.66 24 104 C23.34 105.32 22.68 106.64 22 108 C20.35 109.32 18.7 110.64 17 112 C16.28457031 112.71542969 15.56914062 113.43085938 14.83203125 114.16796875 C1.94625243 127.05374757 -11.77402803 139.84935202 -27 150 C-23.69008224 156.61983551 -18.57262155 162.18029984 -14 168 C-13 175 -13 175 -16 181 C-21 185 -21 185 -29 186 C-36 182 -36 182 -49 166 C-54.45611909 167.57478952 -54.45611909 167.57478952 -56.94140625 169.171875 C-71.6039604 178 -71.6039604 178 -75 178 C-71.67010487 185.49226405 -67.88710459 192.78109148 -64 200 C-63 206 -63 206 -67 214 C-72 217 -72 217 -81 217 C-88 211 -88 211 -97 193 C-97 192.01 -97 191.02 -97 190 C-106.57 192.97 -116.14 195.94 -126 199 C-127.32 199 -128.64 199 -130 199 C-127.69 206.59 -125.38 214.18 -123 222 C-123 230 -123 230 -126 235 C-131 239 -131 239 -141 239 C-149.33600191 230.66399809 -150.80361144 220.18735996 -154 209 C-154 208.01 -154 207.02 -154 206 C-168.85 207.98 -168.85 207.98 -184 210 C-185.98 210 -187.96 210 -190 210 C-190 220.23 -190 230.46 -190 241 C-195 247 -195 247 -198 248 C-207 248 -207 248 -212 245 C-216.93783021 233.47839617 -214.82330976 222.34964645 -214 210 C-219.28 209.67 -224.56 209.34 -230 209 C-239.405 207.515 -239.405 207.515 -249 206 C-249.99 209.63 -250.98 213.26 -252 217 C-258 234 -258 234 -264 239 C-274 239 -274 239 -280 234 C-284.44382197 222.89044507 -277.31338268 209.4923785 -274 199 C-276.64 198.67 -279.28 198.34 -282 198 C-292.89 194.535 -292.89 194.535 -304 191 C-304.99 191 -305.98 191 -307 191 C-310.3 197.27 -313.6 203.54 -317 210 C-321 215 -321 215 -325 217 C-333 217 -333 217 -339 213 C-341 209 -341 209 -341 200 C-338.36 195.38 -335.72 190.76 -333 186 C-331.68 183.36 -330.36 180.72 -329 178 C-330.98 177.34 -332.96 176.68 -335 176 C-341.27 172.7 -347.54 169.4 -354 166 C-359.99049787 168.63168768 -359.99049787 168.63168768 -368 181 C-374 185 -374 185 -381 186 C-387 183 -387 183 -391 178 C-391 164.97816121 -386.5689551 162.47316734 -378 152 C-377.67 151.01 -377.34 150.02 -377 149 C-378.98 148.01 -378.98 148.01 -381 147 C-402.25418376 130.30028419 -424.43478385 112.16099603 -442.26977539 91.53125 C-446.56193958 86.59267912 -450.95794014 81.76871663 -455.4375 77 C-456.07365234 76.32066406 -456.70980469 75.64132813 -457.36523438 74.94140625 C-458.90899754 73.2931779 -460.45392542 71.64605985 -462 70 C-465 66 -465 66 -465 60 C-445.80494666 37.90408651 -425.3948847 16.93435962 -403 -1.9375 C-401.02 -3.608125 -399.04 -5.27875 -397 -7 C-268.73478244 -101.51121294 -124.90256542 -96.67116365 0 0 Z M-377 13 C-371.08558658 24.82882683 -360.26622224 34.73377776 -351 44 C-350.34 44 -349.68 44 -349 44 C-349 44.66 -349 45.32 -349 46 C-300.48790709 86.24850995 -247.27816573 104 -184 104 C-121.99497245 94.07919559 -67.27230459 67.02973945 -29 16 C-31.76063551 4.95745796 -57.92694941 -7.49896781 -65 -12 C-172.20865686 -67.45275355 -279.59337529 -60.05496853 -377 13 Z M-400 33 C-404.29 37.29 -408.58 41.58 -413 46 C-415.64 48.31 -418.28 50.62 -421 53 C-423.64 55.64 -426.28 58.28 -429 61 C-420.8903077 93.4387692 -359.96977292 128.59803815 -334 145 C-263.76077154 181.64655398 -198.09437589 189.48694735 -122 169 C-62.12929511 145.05171805 -17.60749819 111.55207205 25 64 C20.62318024 55.24636049 12.24668374 49.34084828 5 43 C1.04 39.04 1.04 39.04 -3 35 C-4.98 34.505 -4.98 34.505 -7 34 C-14.05639157 41.61755977 -21.07271857 49.26453573 -28 57 C-71.11101058 100.11101058 -126.59004982 123.44875623 -187 131 C-261.25513353 131 -324.22154227 106.03563467 -378 56 C-378.34289062 55.59652344 -378.68578125 55.19304687 -379.0390625 54.77734375 C-385.47062913 47.31609281 -392.257342 40.17870846 -399 33 C-399.33 33 -399.66 33 -400 33 Z " fill="#000000" transform="translate(473,90)"/>
</svg>
