<?xml version="1.0" encoding="UTF-8"?>
<svg version="1.1" xmlns="http://www.w3.org/2000/svg" width="532" height="547">
<path d="M0 0 C10.96296296 6.85185185 10.96296296 6.85185185 13 15 C13 72 13 72 9 80 C1.86495483 85.94587097 1.09514581 86 -8 86 C-14.15781237 82.92109381 -18.69554976 79.91335071 -21 73 C-21 10 -21 10 -13 2 C-8 0 -8 0 0 0 Z " fill="#000000" transform="translate(268,13)"/>
<path d="M0 0 C11 7 11 7 13.82421875 9.08984375 C22.11823488 15.20945607 30.48813752 21.18667065 39 27 C48.68421053 35.47368421 48.68421053 35.47368421 50 46 C46.99206522 55.02380433 45.38788915 57.80605542 37 62 C28.64339582 62 25.53881678 61.69646544 19.0625 56.76171875 C11.32508007 50.89631809 3.50649286 45.20808166 -4.5234375 39.74951172 C-17.29338629 31.05992056 -17.29338629 31.05992056 -22 24 C-23 14 -23 14 -19 5 C-11 0 -11 0 0 0 Z " fill="#000000" transform="translate(30,113)"/>
<path d="M0 0 C8 5 8 5 12 13 C12 21 12 21 8 29 C-2 37 -2 37 -4.28125 38.546875 C-13.38410393 44.7774692 -22.21269128 51.33337683 -31 58 C-39 62 -39 62 -48 62 C-56 57 -56 57 -60 50 C-60 39 -60 39 -56 32 C-46 24 -46 24 -42.703125 21.69140625 C-34.02531584 15.59942391 -25.42967748 9.43189264 -17 3 C-11 0 -11 0 0 0 Z " fill="#000000" transform="translate(509,113)"/>
<path d="M0 0 C4.0851772 3.29602825 8.08530659 6.68866382 12.06787109 10.10742188 C16.66974964 14.03644089 21.36558956 17.84394123 26.06005859 21.66210938 C30.02005859 25.62210937 33.98005859 29.58210938 38.06005859 33.66210938 C42.02005859 37.12710938 42.02005859 37.12710938 46.06005859 40.66210938 C63.86005859 58.46210938 63.86005859 58.46210938 68.06005859 69.66210938 C67.06005859 79.66210938 67.06005859 79.66210938 65.63427734 81.49023438 C65.01166016 82.28945313 64.38904297 83.08867187 63.74755859 83.91210938 C62.82523438 85.09546875 62.82523438 85.09546875 61.88427734 86.30273438 C60.25626841 88.40833908 58.65069996 90.5282028 57.06005859 92.66210938 C56.40005859 92.66210938 55.74005859 92.66210938 55.06005859 92.66210938 C54.40005859 93.98210937 53.74005859 95.30210937 53.06005859 96.66210938 C29.06005859 120.66210938 29.06005859 120.66210938 21.06005859 127.66210938 C18.88601425 129.63420694 16.71767158 131.60987188 14.56005859 133.59960938 C13.75568359 134.33920898 13.75568359 134.33920898 12.93505859 135.09375 C11.64260386 136.28234677 10.3512106 137.47209761 9.06005859 138.66210938 C8.21185547 139.32855469 7.36365234 139.995 6.48974609 140.68164062 C5.93061523 141.1210498 5.37148438 141.56045898 4.79541016 142.01318359 C3.53470229 143.00355069 2.27362292 143.99344502 1.01220703 144.98291016 C-2.11844554 147.43961355 -5.24466693 149.90112124 -8.35400391 152.38476562 C-72.37025757 203.36900514 -146.8180951 230.78675896 -228.93994141 221.66210938 C-276.18966503 211.39043033 -320.68142568 194.2749893 -359.37744141 164.47460938 C-367.55018327 158.1844978 -375.74496501 151.92320726 -383.93994141 145.66210938 C-384.56900391 145.09363281 -385.19806641 144.52515625 -385.84619141 143.93945312 C-389.8560679 140.32210972 -393.86739496 136.70889675 -397.93994141 133.16210938 C-439.41362562 96.87263569 -439.41362562 96.87263569 -450.93994141 77.66210938 C-450.93994141 63.55344787 -447.50195386 60.28656765 -437.93994141 49.66210938 C-418.59875048 30.32091845 -399.46998921 12.25806374 -377.93994141 -4.33789062 C-377.32038574 -4.81629395 -376.70083008 -5.29469727 -376.0625 -5.78759766 C-257.98748834 -96.92627117 -113.89150395 -90.70324499 0 0 Z M-408.44775391 67.14648438 C-409.61277995 68.31740147 -410.77721188 69.48891179 -411.93994141 70.66210938 C-407.47272346 88.53098116 -382.36338799 103.33782083 -367.43994141 116.09960938 C-366.80830078 116.64037109 -366.17666016 117.18113281 -365.52587891 117.73828125 C-311.80548722 163.72619231 -247.30964674 190.66210938 -175.93994141 190.66210938 C-108.3105049 181.43991349 -52.29322774 148.52873331 -2.93994141 103.66210938 C2.01005859 99.20710938 2.01005859 99.20710938 7.06005859 94.66210938 C13.99005859 87.73210937 20.92005859 80.80210937 28.06005859 73.66210938 C25.85392043 64.83755672 17.61215583 59.39519446 11.06005859 53.66210938 C7.10005859 49.70210937 7.10005859 49.70210937 3.06005859 45.66210938 C2.38201172 45.11683594 1.70396484 44.5715625 1.00537109 44.00976562 C-5.49207456 38.74521478 -11.77705414 33.31699292 -17.93994141 27.66210938 C-162.55345669 -81.85419321 -292.82462332 -48.42582285 -408.44775391 67.14648438 Z " fill="#000000" transform="translate(455.93994140625,205.337890625)"/>
<path d="M0 0 C24.46572587 19.0288979 37.46062195 39.48290244 44 70 C44 101.87386389 39.47010745 123.98097979 19 149 C-0.69439298 168.69439298 -20.52289881 178.07469983 -48 182 C-76.61802198 182 -98.61674433 174.90660454 -121 157 C-139.25575227 138.74424773 -149.72154554 119.67072674 -154 94 C-154 59.25357026 -145.96309965 35.83348711 -123 10 C-84.26668895 -19.79485465 -43.39092138 -23.36434228 0 0 Z M-43 30 C-49.54307885 36.74275212 -49.54307885 36.74275212 -52 46 C-50.97561946 55.21942488 -49.68265567 58.89668041 -44 66 C-35.3880177 70.92113274 -34.1101452 71 -24 71 C-15.46205617 68.42759638 -15.46205617 68.42759638 -9 61 C-5.2121614 53.43100546 -5.2121614 53.43100546 -6 42 C-9.95771921 35.07399139 -14.10948595 28.63017135 -22 26 C-34.5527864 25.03103721 -34.5527864 25.03103721 -43 30 Z " fill="#000000" transform="translate(319,195)"/>
<path d="M0 0 C7 4 7 4 11 10 C12 17 12 17 10 25 C3 33 3 33 0.0625 34.984375 C-9.84242718 41.71429472 -19.47566813 48.74276308 -29 56 C-41 62 -41 62 -50 61 C-56 57 -56 57 -60 51 C-61 43 -61 43 -58 34 C-51 27 -51 27 -48.1328125 25.05078125 C-37.62347656 17.8793415 -27.28315078 10.49154822 -17 3 C-11 0 -11 0 0 0 Z " fill="#000000" transform="translate(68,378)"/>
<path d="M0 0 C8 5 8 5 11.33984375 7.421875 C21.83933667 15.02555883 32.39245294 22.54786251 43 30 C49.18965273 37.42758327 50 39.29270915 50 49 C46.50152097 55.99695807 43.28059355 59.08776258 36 62 C28.71959462 62 24.54733308 60.76951254 18.6484375 56.1640625 C12.26018515 51.2005355 5.79827891 46.37680743 -0.80566406 41.70410156 C-17.50409553 29.86783283 -17.50409553 29.86783283 -22 22 C-22 12 -22 12 -19 6 C-11.8 0 -11.8 0 0 0 Z " fill="#000000" transform="translate(471,378)"/>
<path d="M0 0 C8 5 8 5 11 10 C15.3947325 31.97366251 18.03414152 54.93171695 8 75 C0.01528796 81.6539267 0.76487716 81 -10 81 C-16.49334799 77.28951544 -19.59749951 75.20750146 -22 68 C-22 14 -22 14 -19 6 C-10.67173778 -0.94021852 -11.55746607 0 0 0 Z " fill="#000000" transform="translate(269,456)"/>
</svg>
